# xmcd
#
# Track frame offsets:
#	150
#	113506
#	146608
#	179465
#	239037
#
# Disc length: 3690 seconds
#
# Revision: 0
# Processed by: cddbd v1.5.2PL0 Copyright (c) Steve Scherf et al.
# Submitted via: audiograbber 1.83.01
#
DISCID=420e6805
DTITLE=Grateful Dead - 94-10-17 Madison Square Garden, New York NY
DYEAR=1900
DGENRE=
TTITLE0=Eyes Of The World
TTITLE1=Men Smart, Women Smarter
TTITLE2=Crazy Fingers
TTITLE3=Estimated Prophet
TTITLE4=Drums
EXTD=
EXTT0=
EXTT1=
EXTT2=
EXTT3=
EXTT4=
PLAYORDER=
